<mxfile host="app.diagrams.net" agent="Mozilla/5.0 (Windows NT 10.0; Win64; x64) AppleWebKit/537.36 (KHTML, like Gecko) Chrome/141.0.0.0 Safari/537.36" version="28.2.8">
  <diagram name="Page-1" id="Hkys7pSBhKWNwyKSVsQ8">
    <mxGraphModel dx="1042" dy="1661" grid="1" gridSize="10" guides="1" tooltips="1" connect="1" arrows="1" fold="1" page="1" pageScale="1" pageWidth="850" pageHeight="1100" math="0" shadow="0">
      <root>
        <mxCell id="0" />
        <mxCell id="1" parent="0" />
        <mxCell id="qpd2etdOukfUECIjop7--5" style="edgeStyle=orthogonalEdgeStyle;rounded=0;orthogonalLoop=1;jettySize=auto;html=1;" edge="1" parent="1" source="qpd2etdOukfUECIjop7--1" target="qpd2etdOukfUECIjop7--4">
          <mxGeometry relative="1" as="geometry">
            <Array as="points">
              <mxPoint x="160" />
            </Array>
          </mxGeometry>
        </mxCell>
        <mxCell id="qpd2etdOukfUECIjop7--1" value="&lt;b&gt;VPC&lt;/b&gt;" style="rounded=0;whiteSpace=wrap;html=1;fillColor=#dae8fc;gradientColor=#7ea6e0;strokeColor=#6c8ebf;" vertex="1" parent="1">
          <mxGeometry x="90" y="160" width="150" height="80" as="geometry" />
        </mxCell>
        <mxCell id="qpd2etdOukfUECIjop7--3" style="edgeStyle=orthogonalEdgeStyle;rounded=0;orthogonalLoop=1;jettySize=auto;html=1;entryX=1;entryY=0.5;entryDx=0;entryDy=0;" edge="1" parent="1" source="qpd2etdOukfUECIjop7--2" target="qpd2etdOukfUECIjop7--1">
          <mxGeometry relative="1" as="geometry" />
        </mxCell>
        <mxCell id="qpd2etdOukfUECIjop7--6" style="edgeStyle=orthogonalEdgeStyle;rounded=0;orthogonalLoop=1;jettySize=auto;html=1;" edge="1" parent="1" source="qpd2etdOukfUECIjop7--2" target="qpd2etdOukfUECIjop7--4">
          <mxGeometry relative="1" as="geometry">
            <Array as="points">
              <mxPoint x="395" />
            </Array>
          </mxGeometry>
        </mxCell>
        <mxCell id="qpd2etdOukfUECIjop7--2" value="&lt;b&gt;SG&lt;/b&gt;" style="rounded=0;whiteSpace=wrap;html=1;fillColor=#d5e8d4;gradientColor=#97d077;strokeColor=#82b366;" vertex="1" parent="1">
          <mxGeometry x="320" y="160" width="150" height="80" as="geometry" />
        </mxCell>
        <mxCell id="qpd2etdOukfUECIjop7--4" value="" style="sketch=0;outlineConnect=0;fontColor=#232F3E;gradientColor=none;fillColor=#E7157B;strokeColor=none;dashed=0;verticalLabelPosition=bottom;verticalAlign=top;align=center;html=1;fontSize=12;fontStyle=0;aspect=fixed;pointerEvents=1;shape=mxgraph.aws4.parameter_store;" vertex="1" parent="1">
          <mxGeometry x="245" y="-30" width="75" height="78" as="geometry" />
        </mxCell>
      </root>
    </mxGraphModel>
  </diagram>
</mxfile>
